<svg width="51" height="51" viewBox="0 0 51 51" fill="none" xmlns="http://www.w3.org/2000/svg">
<path d="M20.4775 32.769C9.55617 32.769 0 34.5361 0 41.5501C0 48.5642 9.55617 50.4128 20.4775 50.4128C31.3988 50.4128 40.955 48.673 40.955 41.6318C40.955 34.5905 31.59 32.7963 20.4775 32.7963" fill="url(#paint0_linear_319_864)"/>
<path opacity="0.4" d="M20.3779 25C23.6931 25 26.8725 23.7688 29.2167 21.5774C31.5609 19.386 32.8779 16.4138 32.8779 13.3147C33.1252 11.6726 32.9959 10.0001 32.4984 8.40838C32.0009 6.81661 31.1467 5.34208 29.9926 4.08274C28.8384 2.8234 27.4108 1.80809 25.8045 1.10436C24.1982 0.400635 22.4501 0.0245651 20.6763 0.00116385C18.9026 -0.0222374 17.1439 0.307495 15.517 0.968566C13.8901 1.62964 12.4323 2.60687 11.2406 3.83526C10.0489 5.06364 9.15055 6.51513 8.60523 8.09314C8.0599 9.67115 7.88018 11.3395 8.07788 12.9875C8.05285 13.0953 8.05285 13.2069 8.07788 13.3147C8.07746 16.3817 9.36685 19.326 11.668 21.5121C13.9691 23.6982 17.0974 24.9509 20.3779 25Z" fill="#4E6ACB"/>
<path fill-rule="evenodd" clip-rule="evenodd" d="M43.5376 19C44.1323 19 44.6143 19.482 44.6143 20.0767V32.2791C44.6143 32.8738 44.1323 33.3558 43.5376 33.3558C42.943 33.3558 42.4609 32.8738 42.4609 32.2791V20.0767C42.4609 19.482 42.943 19 43.5376 19Z" fill="#4E6ACB"/>
<path fill-rule="evenodd" clip-rule="evenodd" d="M36 25.8189C36 25.2242 36.482 24.7422 37.0767 24.7422H49.2791C49.8738 24.7422 50.3558 25.2242 50.3558 25.8189C50.3558 26.4135 49.8738 26.8956 49.2791 26.8956H37.0767C36.482 26.8956 36 26.4135 36 25.8189Z" fill="#4E6ACB"/>
<defs>
<linearGradient id="paint0_linear_319_864" x1="20.4775" y1="32.769" x2="20.4775" y2="50.4128" gradientUnits="userSpaceOnUse">
<stop stop-color="#2C95DC"/>
<stop offset="1" stop-color="#5562C8"/>
</linearGradient>
</defs>
</svg>
