<svg width="25" height="25" viewBox="0 0 25 25" fill="none" xmlns="http://www.w3.org/2000/svg">
<g id="Group 1000004142">
<g id="Group 265">
<path id="Path 341" d="M12.4745 12.0251L10.8882 13.6114C10.679 13.8204 10.5131 14.0685 10.3998 14.3416C10.2866 14.6148 10.2283 14.9076 10.2283 15.2032C10.2283 15.4989 10.2866 15.7917 10.3998 16.0648C10.5131 16.338 10.679 16.5861 10.8882 16.7951C11.3097 17.2142 11.88 17.4494 12.4745 17.4494C13.0689 17.4494 13.6391 17.2142 14.0607 16.7951L16.5695 14.2976C16.9879 13.8797 17.3198 13.3834 17.5462 12.8371C17.7727 12.2908 17.8892 11.7052 17.8892 11.1139C17.8892 10.5225 17.7727 9.93694 17.5462 9.39065C17.3198 8.84436 16.9879 8.34801 16.5695 7.93008C16.1515 7.51169 15.6552 7.17979 15.1089 6.95333C14.5626 6.72687 13.9771 6.61035 13.3857 6.61035C12.7943 6.61035 12.2087 6.72687 11.6624 6.95333C11.1161 7.17979 10.6199 7.51169 10.2019 7.93008L7.46819 10.6639C6.75026 11.3904 6.34766 12.3706 6.34766 13.392C6.34766 14.4134 6.75026 15.3936 7.46819 16.1201" stroke="#4E6ACB" stroke-width="1.5" stroke-linecap="round" stroke-linejoin="round"/>
</g>
<path id="Rectangle 288" d="M15.625 1H8.875C4.52576 1 1 4.52576 1 8.875V15.625C1 19.9742 4.52576 23.5 8.875 23.5H15.625C19.9742 23.5 23.5 19.9742 23.5 15.625V8.875C23.5 4.52576 19.9742 1 15.625 1Z" stroke="#4E6ACB" stroke-width="1.5" stroke-linecap="round" stroke-linejoin="round"/>
</g>
</svg>
