<svg width="12" height="12" viewBox="0 0 12 12" fill="none" xmlns="http://www.w3.org/2000/svg">
<path fill-rule="evenodd" clip-rule="evenodd" d="M9.35355 3.2034C9.54882 3.01688 9.54882 2.71447 9.35355 2.52795C9.15829 2.34143 8.84171 2.34143 8.64645 2.52795L6 5.0559L3.35355 2.52795C3.15829 2.34143 2.84171 2.34143 2.64645 2.52795C2.45118 2.71447 2.45118 3.01688 2.64645 3.2034L5.29289 5.73135L2.64645 8.25929C2.45118 8.44581 2.45118 8.74822 2.64645 8.93474C2.84171 9.12126 3.15829 9.12126 3.35355 8.93474L6 6.40679L8.64645 8.93474C8.84171 9.12126 9.15829 9.12126 9.35355 8.93474C9.54882 8.74822 9.54882 8.44581 9.35355 8.25929L6.70711 5.73135L9.35355 3.2034Z" fill="#637381"/>
</svg>
