<svg width="18" height="19" viewBox="0 0 18 19" fill="none" xmlns="http://www.w3.org/2000/svg">
<path d="M12.6566 0.0269853H15.7151C16.0163 0.0281642 16.3143 0.0886717 16.5922 0.205039C16.87 0.321405 17.1222 0.491374 17.3344 0.705213C17.5466 0.919052 17.7146 1.17255 17.8287 1.4513C17.9429 1.73006 18.0011 2.02859 17.9999 2.32982V5.40625C17.9952 6.00994 17.7526 6.58746 17.3249 7.0135C16.8972 7.43955 16.3188 7.67978 15.7151 7.68212H12.6566C12.0498 7.67737 11.4696 7.43238 11.0431 7.00077C10.6165 6.56916 10.3784 5.98611 10.3808 5.37929V2.30286C10.3784 1.69604 10.6165 1.11299 11.0431 0.681385C11.4696 0.249776 12.0498 0.00475464 12.6566 0" fill="#101041"/>
<path d="M12.6567 18.0179C12.3559 18.0167 12.0582 17.9561 11.7809 17.8397C11.5035 17.7232 11.2519 17.5531 11.0405 17.3392C10.829 17.1252 10.6619 16.8716 10.5487 16.5929C10.4355 16.3142 10.3785 16.0159 10.3808 15.7151V12.6476C10.3832 12.0456 10.624 11.469 11.0506 11.0442C11.4771 10.6193 12.0546 10.3807 12.6567 10.3808H15.7151C16.0164 10.3819 16.3144 10.4424 16.5923 10.5588C16.8701 10.6752 17.1223 10.8451 17.3345 11.059C17.5467 11.2728 17.7146 11.5263 17.8288 11.8051C17.943 12.0838 18.0012 12.3824 18 12.6836V15.751C18.0012 16.0522 17.943 16.3508 17.8288 16.6295C17.7146 16.9083 17.5467 17.1618 17.3345 17.3757C17.1223 17.5895 16.8701 17.7595 16.5923 17.8758C16.3144 17.9922 16.0164 18.0527 15.7151 18.0539H12.6567V18.0179ZM2.28492 18.0179C1.98335 18.0179 1.68477 17.9582 1.40638 17.8422C1.12799 17.7263 0.875302 17.5564 0.662898 17.3423C0.450494 17.1283 0.282579 16.8742 0.168818 16.5949C0.0550573 16.3157 -0.00230375 16.0166 7.08203e-05 15.7151V12.6476C-0.00230375 12.3461 0.0550573 12.047 0.168818 11.7677C0.282579 11.4884 0.450494 11.2344 0.662898 11.0203C0.875302 10.8063 1.12799 10.6363 1.40638 10.5204C1.68477 10.4044 1.98335 10.3448 2.28492 10.3448H5.32539C5.62696 10.3448 5.92555 10.4044 6.20394 10.5204C6.48233 10.6363 6.73501 10.8063 6.94742 11.0203C7.15982 11.2344 7.32774 11.4884 7.4415 11.7677C7.55526 12.047 7.61259 12.3461 7.61022 12.6476V15.7151C7.61259 16.0166 7.55526 16.3157 7.4415 16.5949C7.32774 16.8742 7.15982 17.1283 6.94742 17.3423C6.73501 17.5564 6.48233 17.7263 6.20394 17.8422C5.92555 17.9582 5.62696 18.0179 5.32539 18.0179H2.28492ZM2.28492 7.70913C1.98369 7.70795 1.68563 7.64744 1.40778 7.53108C1.12993 7.41471 0.877729 7.24474 0.665561 7.0309C0.453393 6.81706 0.285418 6.56351 0.171234 6.28476C0.0570496 6.006 -0.0011128 5.70747 7.08203e-05 5.40624V2.32981C-0.0011128 2.02858 0.0570496 1.73005 0.171234 1.45129C0.285418 1.17254 0.453393 0.919044 0.665561 0.705205C0.877729 0.491367 1.12993 0.321398 1.40778 0.205031C1.68563 0.088664 1.98369 0.0281565 2.28492 0.0269775H5.32539C5.62662 0.0281565 5.92466 0.088664 6.20251 0.205031C6.48036 0.321398 6.73259 0.491367 6.94475 0.705205C7.15692 0.919044 7.32487 1.17254 7.43905 1.45129C7.55324 1.73005 7.6114 2.02858 7.61022 2.32981V5.40624C7.6114 5.70747 7.55324 6.006 7.43905 6.28476C7.32487 6.56351 7.15692 6.81706 6.94475 7.0309C6.73259 7.24474 6.48036 7.41471 6.20251 7.53108C5.92466 7.64744 5.62662 7.70795 5.32539 7.70913H2.28492Z" fill="#5364C9"/>
</svg>
