<svg width="75" height="111" viewBox="0 0 75 111" fill="none" xmlns="http://www.w3.org/2000/svg">
<g id="Layer_1" clip-path="url(#clip0_374_8728)">
<path id="Vector" d="M39.0298 16.8776L45.5478 4.12897L26.0254 10.1695L39.0298 16.8776Z" fill="#4E6ACB"/>
<path id="Vector_2" d="M54.1401 102.468L58.123 54.2006H6.05469L10.0366 102.46V102.465C10.3506 107.251 14.3396 111 19.1123 111H45.0644C49.8391 111 53.8246 107.253 54.1401 102.468ZM21.1219 97.999C21.0517 98.0831 20.9655 98.1523 20.8684 98.2026C20.7713 98.2528 20.6651 98.2831 20.5562 98.2917C20.5341 98.2917 20.511 98.2942 20.4874 98.2942C20.2793 98.2929 20.0793 98.2136 19.9263 98.072C19.7734 97.9303 19.6786 97.7364 19.6605 97.5282L17.2033 67.8101C17.1852 67.5894 17.255 67.3705 17.3974 67.2015C17.5398 67.0324 17.7432 66.927 17.9629 66.9083C17.9865 66.9083 18.0101 66.9058 18.0332 66.9058C18.2417 66.906 18.4425 66.9848 18.5959 67.1267C18.7492 67.2686 18.8439 67.4631 18.8611 67.6718L21.3168 97.3904C21.326 97.4998 21.3135 97.6099 21.28 97.7143C21.2466 97.8188 21.1928 97.9156 21.1219 97.999ZM32.9206 97.5105C32.9233 97.622 32.9038 97.7328 32.8632 97.8366C32.8227 97.9404 32.7618 98.0349 32.6843 98.1147C32.6068 98.1945 32.5142 98.2579 32.412 98.3012C32.3097 98.3445 32.1998 98.3668 32.0889 98.3668C31.9779 98.3668 31.868 98.3445 31.7658 98.3012C31.6635 98.2579 31.5709 98.1945 31.4934 98.1147C31.4159 98.0349 31.3551 97.9404 31.3145 97.8366C31.2739 97.7328 31.2544 97.622 31.2572 97.5105V67.69C31.2625 67.472 31.3525 67.2647 31.5079 67.1124C31.6632 66.9601 31.8718 66.8749 32.0889 66.8749C32.306 66.8749 32.5145 66.9601 32.6699 67.1124C32.8253 67.2647 32.9152 67.472 32.9206 67.69V97.5105ZM43.6918 98.2948C43.6684 98.295 43.6449 98.294 43.6215 98.2917C43.5127 98.2827 43.4067 98.2522 43.3096 98.202C43.2125 98.1518 43.1262 98.0829 43.0556 97.9992C42.985 97.9155 42.9315 97.8187 42.8982 97.7142C42.8649 97.6098 42.8524 97.4998 42.8614 97.3904L45.3166 67.6718C45.334 67.4633 45.4287 67.269 45.5819 67.1271C45.7351 66.9853 45.9357 66.9063 46.144 66.9058C46.1676 66.9058 46.1907 66.9058 46.2143 66.9083C46.4341 66.927 46.6375 67.0324 46.78 67.2014C46.9225 67.3705 46.9924 67.5894 46.9745 67.8101L44.5188 97.5287C44.5004 97.7367 44.4055 97.9303 44.2525 98.0716C44.0996 98.213 43.8997 98.292 43.6918 98.2932V98.2948Z" fill="#4E6ACB"/>
<path id="Vector_3" d="M60.724 44.4691H3.45344C1.54616 44.4691 0 46.0222 0 47.938V49.0608C0 50.9766 1.54616 52.5297 3.45344 52.5297H60.724C62.6313 52.5297 64.1775 50.9766 64.1775 49.0608V47.938C64.1775 46.0222 62.6313 44.4691 60.724 44.4691Z" fill="#4E6ACB"/>
<path id="Vector_4" d="M46.1341 95.7701C46.1574 95.7723 46.1809 95.7733 46.2044 95.7731C46.4125 95.7719 46.6126 95.6926 46.7656 95.5509C46.9185 95.4092 47.0133 95.2153 47.0313 95.007L49.487 65.2885C49.5049 65.0677 49.435 64.8488 49.2925 64.6798C49.15 64.5107 48.9466 64.4053 48.7269 64.3867C48.7033 64.3867 48.6802 64.3842 48.6566 64.3842C48.4482 64.3847 48.2477 64.4637 48.0945 64.6055C47.9413 64.7473 47.8466 64.9417 47.8291 65.1502L45.3739 94.8688C45.3649 94.9781 45.3774 95.0881 45.4108 95.1926C45.4441 95.297 45.4976 95.3939 45.5681 95.4776C45.6387 95.5613 45.725 95.6302 45.8221 95.6804C45.9192 95.7305 46.0252 95.761 46.1341 95.7701Z" fill="#333333"/>
<path id="Vector_5" d="M34.601 95.823C34.8216 95.8228 35.033 95.7346 35.189 95.578C35.3449 95.4213 35.4327 95.2089 35.4329 94.9874V65.1668C35.4276 64.9488 35.3376 64.7415 35.1823 64.5892C35.0269 64.4369 34.8184 64.3517 34.6012 64.3517C34.3841 64.3517 34.1756 64.4369 34.0202 64.5892C33.8648 64.7415 33.7749 64.9488 33.7695 65.1668V94.9874C33.7697 95.2089 33.8573 95.4213 34.0132 95.5779C34.1691 95.7346 34.3805 95.8228 34.601 95.823Z" fill="#333333"/>
<path id="Vector_6" d="M22.1704 95.0055C22.1885 95.2137 22.2833 95.4076 22.4363 95.5493C22.5892 95.691 22.7893 95.7702 22.9973 95.7716C23.0209 95.7716 23.044 95.7716 23.0661 95.769C23.2859 95.7507 23.4894 95.6454 23.6319 95.4764C23.7744 95.3074 23.8443 95.0885 23.8263 94.8678L21.3731 65.1487C21.3558 64.9401 21.2612 64.7455 21.108 64.6037C20.9547 64.4618 20.754 64.3829 20.5456 64.3826C20.5225 64.3826 20.4989 64.3826 20.4753 64.3852C20.2556 64.4038 20.0523 64.5092 19.9099 64.6783C19.7674 64.8473 19.6976 65.0662 19.7157 65.2869L22.1704 95.0055Z" fill="#333333"/>
<path id="Vector_7" d="M75.0005 13.6328L73.6149 12.9177L50.2035 0.839719L48.8179 0.125157V0.130708C48.477 -0.0192699 48.0938 -0.0409497 47.7383 0.0696424L28.0827 6.15103C27.8274 6.23002 27.5967 6.37363 27.4126 6.56805C27.2286 6.76248 27.0974 7.00118 27.0317 7.26123L26.3831 8.52989L10.5156 39.561L10.0956 40.3821H5.96593C4.63746 40.3837 3.36386 40.9145 2.42448 41.8581C1.48511 42.8016 0.956674 44.0809 0.955078 45.4153V46.5376C0.956674 47.8721 1.48518 49.1515 2.42466 50.0951C3.36414 51.0387 4.63787 51.5694 5.96643 51.5709H6.99583L7.01492 51.8066L10.9964 100.055C11.3691 105.656 16.0359 110.041 21.6255 110.041H47.5775C53.1636 110.041 57.8293 105.659 58.2056 100.062L62.1875 51.8066L62.2071 51.5709H63.2365C64.565 51.5693 65.8385 51.0385 66.7778 50.0949C67.7171 49.1513 68.2454 47.872 68.2469 46.5376V45.4153C68.2454 44.0809 67.717 42.8015 66.7776 41.8579C65.8382 40.9143 64.5645 40.3835 63.236 40.3821H61.3239L74.2886 15.0241L75.0005 13.6328ZM48.0608 1.60475L41.5428 14.3534L28.5384 7.64526L48.0608 1.60475ZM56.6517 99.9439C56.3362 104.728 52.3507 108.476 47.5765 108.476H21.625C16.8492 108.476 12.8628 104.726 12.5493 99.9404V99.9358L8.56731 51.6764H60.6357L56.6517 99.9439ZM63.233 41.9454C64.1486 41.9464 65.0265 42.3122 65.6739 42.9625C66.3214 43.6128 66.6855 44.4946 66.6865 45.4143V46.5366C66.6855 47.4563 66.3214 48.3381 65.6739 48.9885C65.0265 49.6388 64.1486 50.0046 63.233 50.0055H5.96643C5.05076 50.0046 4.17286 49.6388 3.52533 48.9885C2.87781 48.3382 2.51356 47.4564 2.51249 46.5366V45.4143C2.51356 44.4946 2.87774 43.6129 3.52515 42.9626C4.17257 42.3123 5.05035 41.9465 5.96593 41.9454H63.233ZM59.6243 40.2746H45.5076L25.3974 29.9003C25.3003 29.8501 25.1942 29.8197 25.0854 29.8107C24.9765 29.8018 24.867 29.8144 24.763 29.848C24.659 29.8815 24.5626 29.9353 24.4793 30.0063C24.3961 30.0772 24.3275 30.164 24.2776 30.2616C24.2277 30.3592 24.1974 30.4657 24.1885 30.575C24.1795 30.6843 24.1921 30.7944 24.2255 30.8988C24.2589 31.0033 24.3125 31.1001 24.3831 31.1838C24.4538 31.2674 24.5402 31.3363 24.6373 31.3864L41.8693 40.2746H27.8466L21.7114 37.1095C21.5152 37.0083 21.287 36.9895 21.077 37.0572C20.867 37.125 20.6923 37.2738 20.5916 37.4708C20.4908 37.6679 20.472 37.8971 20.5395 38.1081C20.6069 38.319 20.7551 38.4944 20.9513 38.5957L24.2052 40.2746H11.9007L27.7662 9.24394L41.381 16.267C41.498 16.328 41.6279 16.3599 41.7598 16.3598C41.913 16.3603 42.0634 16.3181 42.1942 16.2379C42.325 16.1577 42.4311 16.0427 42.5008 15.9057L49.4926 2.23L72.9041 14.308L59.6243 40.2746Z" fill="#333333"/>
<path id="Vector_8" d="M53.884 35.4861L29.0825 22.6925C28.9853 22.6424 28.8793 22.612 28.7705 22.6031C28.6616 22.5941 28.5521 22.6068 28.4481 22.6404C28.3442 22.674 28.2478 22.7278 28.1646 22.7987C28.0813 22.8697 28.0128 22.9565 27.9629 23.0541C27.913 23.1517 27.8828 23.2581 27.8739 23.3675C27.865 23.4768 27.8776 23.5868 27.911 23.6912C27.9444 23.7957 27.998 23.8925 28.0687 23.9761C28.1393 24.0597 28.2257 24.1286 28.3229 24.1787L53.1244 36.9727C53.2216 37.0229 53.3276 37.0533 53.4365 37.0622C53.5454 37.0712 53.655 37.0585 53.759 37.0249C53.863 36.9913 53.9594 36.9374 54.0426 36.8664C54.1259 36.7954 54.1944 36.7085 54.2442 36.6109C54.2943 36.5133 54.3246 36.4068 54.3336 36.2975C54.3426 36.1881 54.33 36.078 54.2966 35.9736C54.2632 35.8691 54.2096 35.7722 54.1389 35.6886C54.0682 35.6049 53.9817 35.5361 53.8845 35.4861H53.884Z" fill="#333333"/>
<path id="Vector_9" d="M52.3325 12.8077L62.6893 18.1503C62.8063 18.2113 62.9362 18.2432 63.0681 18.2431C63.2548 18.2433 63.4361 18.1803 63.5829 18.0644C63.7297 17.9486 63.8334 17.7864 63.8773 17.6042C63.9213 17.4219 63.9029 17.2301 63.8252 17.0596C63.7475 16.8891 63.615 16.7498 63.4489 16.6641L53.0926 11.3215C52.8964 11.2203 52.6682 11.2015 52.4582 11.2692C52.2482 11.337 52.0736 11.4858 51.9728 11.6828C51.872 11.8799 51.8533 12.1091 51.9207 12.3201C51.9882 12.531 52.1363 12.7064 52.3325 12.8077Z" fill="#333333"/>
<path id="Vector_10" d="M59.7639 23.8739L49.4066 18.5313C49.2895 18.4704 49.1596 18.4386 49.0278 18.4384C48.941 18.4386 48.8547 18.4522 48.7721 18.4788C48.6155 18.5295 48.4775 18.6256 48.3753 18.7551C48.2731 18.8845 48.2115 19.0415 48.1981 19.2062C48.1847 19.3708 48.2202 19.5357 48.3001 19.6801C48.38 19.8245 48.5007 19.9419 48.647 20.0174L59.0022 25.36C59.0994 25.4101 59.2054 25.4406 59.3143 25.4495C59.4231 25.4585 59.5327 25.4459 59.6367 25.4123C59.7406 25.3788 59.837 25.325 59.9203 25.254C60.0036 25.183 60.0722 25.0963 60.1221 24.9987C60.172 24.9011 60.2023 24.7946 60.2112 24.6853C60.2201 24.5759 60.2075 24.4659 60.1741 24.3614C60.1407 24.257 60.0872 24.1602 60.0165 24.0765C59.9459 23.9929 59.8595 23.924 59.7624 23.8739H59.7639Z" fill="#333333"/>
</g>
<defs>
<clipPath id="clip0_374_8728">
<rect width="75" height="111" fill="white"/>
</clipPath>
</defs>
</svg>
