<svg width="41" height="41" viewBox="0 0 41 41" fill="none" xmlns="http://www.w3.org/2000/svg">
<circle cx="20.5" cy="20.5" r="20.5" fill="#FF4545"/>
<path d="M22.931 15.0744C22.4626 17.8949 21.9906 20.7085 21.515 23.5155C21.3534 24.4738 20.735 25.0422 19.8759 25.0404C19.0168 25.0385 18.4002 24.4701 18.2386 23.5118C17.7619 20.6914 17.2899 17.8771 16.8226 15.0689C16.48 13.0014 17.9013 11.1969 19.8636 11.1914C21.826 11.1859 23.2771 12.9904 22.931 15.0744Z" fill="white"/>
<path d="M21.4318 28.2371C21.4369 28.4445 21.4004 28.6509 21.3245 28.844C21.2486 29.0371 21.1348 29.213 20.9897 29.3613C20.8447 29.5097 20.6714 29.6275 20.48 29.7078C20.2887 29.7881 20.0832 29.8292 19.8758 29.8287C19.6683 29.8283 19.463 29.7862 19.272 29.7051C19.0811 29.624 18.9083 29.5054 18.7639 29.3564C18.6195 29.2074 18.5064 29.031 18.4314 28.8376C18.3563 28.6441 18.3208 28.4376 18.3268 28.2302C18.3387 27.8258 18.5079 27.4419 18.7985 27.1604C19.089 26.8788 19.478 26.7218 19.8826 26.7227C20.2873 26.7236 20.6755 26.8823 20.9649 27.1652C21.2542 27.448 21.4217 27.8326 21.4318 28.2371Z" fill="white"/>
</svg>
