<svg width="35" height="35" viewBox="0 0 35 35" fill="none" xmlns="http://www.w3.org/2000/svg">
<circle cx="17.5" cy="17.5" r="17.5" fill="#F87171"/>
<path d="M17.493 18.2206L17.3161 18.0439L13.4423 21.927L21.9086 21.5619C22.011 21.6641 22.011 21.8247 21.9086 21.927C21.8647 21.9708 21.7916 22 21.7331 22C21.6747 22 21.6015 21.9708 21.5577 21.927L17.6696 18.0436L17.493 18.2206ZM17.493 18.2206L21.381 22.1039C21.4723 22.1951 21.6092 22.25 21.7331 22.25C21.8571 22.25 21.994 22.1951 22.0853 22.1039L22.0853 22.1039C22.2853 21.9041 22.2854 21.5852 22.0856 21.3853C22.0855 21.3852 22.0854 21.3851 22.0853 21.385M17.493 18.2206L13.6193 22.1035L13.619 22.1039C13.5277 22.1951 13.3908 22.25 13.2669 22.25C13.1429 22.25 13.006 22.1951 12.9147 22.1039L13.0914 21.927L12.9147 22.1039C12.7148 21.9041 12.7146 21.5854 12.9142 21.3855C12.9144 21.3853 12.9146 21.3851 12.9147 21.385L16.7743 17.5021L12.9001 13.6187C12.9 13.6186 12.9 13.6185 12.8999 13.6185L12.8998 13.6184L13.0768 13.4418L22.0853 21.385M22.0853 21.385L18.212 17.5025L22.0996 13.6336L22.0999 13.6333C22.3 13.4334 22.3 13.1143 22.0999 12.9144C21.9 12.7147 21.5812 12.7147 21.3812 12.9142L21.3813 12.9141L21.5577 13.0913L21.381 12.9144L17.4933 16.7834L22.0853 21.385Z" fill="white" stroke="white" stroke-width="0.5"/>
</svg>
