<svg width="20" height="22" viewBox="0 0 20 22" fill="none" xmlns="http://www.w3.org/2000/svg">
<g id="Iconly Light Document">
<g id="Document-4">
<path id="Stroke 1-110" d="M14.0142 15.6447H6.15234" stroke="#4E6ACB" stroke-linecap="round" stroke-linejoin="round"/>
<path id="Stroke 2-6" d="M14.0142 11.0953H6.15234" stroke="#4E6ACB" stroke-linecap="round" stroke-linejoin="round"/>
<path id="Stroke 3-103" d="M9.17112 6.55676H6.15234" stroke="#4E6ACB" stroke-linecap="round" stroke-linejoin="round"/>
<path id="Stroke 4-7" d="M14.2315 1.00738H5.88095C4.66008 0.939197 3.46206 1.35835 2.54994 2.17273C1.63783 2.98712 1.08619 4.13017 1.01616 5.35094C0.999852 5.56781 0.999852 5.78564 1.01616 6.00251V15.9927C0.913879 17.2135 1.30002 18.425 2.08989 19.3615C2.87976 20.2979 4.00884 20.8828 5.22941 20.9878C5.45716 21.0041 5.68578 21.0041 5.91353 20.9878H14.2532C15.474 21.056 16.6721 20.6368 17.5842 19.8224C18.4963 19.0081 19.0479 17.865 19.118 16.6442C19.1342 16.431 19.1342 16.2168 19.118 16.0035V6.01332C19.1716 5.40911 19.1053 4.80028 18.9228 4.22177C18.7404 3.64326 18.4455 3.10648 18.055 2.64231C17.6645 2.17814 17.1861 1.79577 16.6473 1.51705C16.1086 1.23834 15.52 1.06881 14.9156 1.01825C14.6881 0.998357 14.4595 0.994718 14.2315 1.00738Z" stroke="#4E6ACB" stroke-linecap="round" stroke-linejoin="round"/>
</g>
</g>
</svg>
