<svg width="127" height="104" viewBox="0 0 127 104" fill="none" xmlns="http://www.w3.org/2000/svg">
<g id="Group 1000004399">
<g id="*****">
<path d="M66.2 50.6745V51.8006L64.9367 51.7067L65.6807 52.8328L64.8104 53.4272L64.1928 52.129L63.5752 53.4272L62.7049 52.8328L63.4629 51.7067L62.1855 51.8006V50.6745L63.4629 50.7683L62.7049 49.6422L63.5752 49.0479L64.1928 50.346L64.8104 49.0479L65.6807 49.6422L64.9367 50.7683L66.2 50.6745Z" fill="#4E6ACB"/>
<path d="M71.7654 50.6745V51.8006L70.5021 51.7067L71.246 52.8328L70.3758 53.4272L69.7581 52.129L69.1405 53.4272L68.2702 52.8328L69.0282 51.7067L67.7509 51.8006V50.6745L69.0282 50.7683L68.2702 49.6422L69.1405 49.0479L69.7581 50.346L70.3758 49.0479L71.246 49.6422L70.5021 50.7683L71.7654 50.6745Z" fill="#4E6ACB"/>
<path d="M77.3307 50.6745V51.8006L76.0674 51.7067L76.8114 52.8328L75.9411 53.4272L75.3235 52.129L74.7059 53.4272L73.8356 52.8328L74.5936 51.7067L73.3162 51.8006V50.6745L74.5936 50.7683L73.8356 49.6422L74.7059 49.0479L75.3235 50.346L75.9411 49.0479L76.8114 49.6422L76.0674 50.7683L77.3307 50.6745Z" fill="#4E6ACB"/>
<path d="M82.8961 50.6745V51.8006L81.6328 51.7067L82.3767 52.8328L81.5064 53.4272L80.8888 52.129L80.2712 53.4272L79.4009 52.8328L80.1589 51.7067L78.8816 51.8006V50.6745L80.1589 50.7683L79.4009 49.6422L80.2712 49.0479L80.8888 50.346L81.5064 49.0479L82.3767 49.6422L81.6328 50.7683L82.8961 50.6745Z" fill="#4E6ACB"/>
<path d="M88.4614 50.6745V51.8006L87.1981 51.7067L87.9421 52.8328L87.0718 53.4272L86.4542 52.129L85.8365 53.4272L84.9663 52.8328L85.7243 51.7067L84.4469 51.8006V50.6745L85.7243 50.7683L84.9663 49.6422L85.8365 49.0479L86.4542 50.346L87.0718 49.0479L87.9421 49.6422L87.1981 50.7683L88.4614 50.6745Z" fill="#4E6ACB"/>
</g>
<path id="Vector" d="M122.194 46.7692C121.865 46.5453 121.583 46.2588 121.365 45.9263C121.146 45.5938 120.996 45.2217 120.922 44.8313C120.848 44.4409 120.852 44.0398 120.934 43.6509C121.015 43.262 121.173 42.893 121.398 42.5648L121.453 42.4848C121.678 42.1566 121.966 41.8758 122.3 41.6584C122.634 41.4409 123.007 41.2911 123.399 41.2174C123.791 41.1438 124.194 41.1478 124.585 41.2292C124.975 41.3106 125.346 41.4678 125.675 41.6919C126.341 42.1443 126.798 42.8414 126.948 43.6299C127.097 44.4183 126.926 45.2336 126.471 45.8963L126.416 45.9763C126.191 46.3045 125.904 46.5853 125.57 46.8028C125.236 47.0202 124.862 47.17 124.47 47.2437C124.078 47.3173 123.676 47.3133 123.285 47.2319C122.894 47.1505 122.524 46.9933 122.194 46.7692Z" fill="url(#paint0_linear_319_1308)"/>
<path id="Vector_2" d="M92.4151 100.197C91.7496 99.7448 91.2919 99.0477 91.1425 98.2592C90.9932 97.4707 91.1644 96.6554 91.6186 95.9926L91.6736 95.9124C92.128 95.2497 92.828 94.7939 93.6198 94.6452C94.4116 94.4965 95.2303 94.6671 95.8958 95.1195C96.5612 95.572 97.0189 96.2691 97.1683 97.0577C97.3176 97.8462 97.1462 98.6615 96.6919 99.3242L96.6372 99.4041C96.1829 100.067 95.4828 100.523 94.691 100.671C93.8993 100.82 93.0806 100.65 92.4151 100.197Z" fill="url(#paint1_linear_319_1308)"/>
<path id="Vector_3" d="M4.37968 40.2899C3.80452 40.2899 3.23498 40.1785 2.70359 39.9619C2.1722 39.7453 1.68937 39.4278 1.28267 39.0275C0.875972 38.6273 0.553368 38.1521 0.333286 37.6292C0.113203 37.1062 -4.81374e-05 36.5457 1.53489e-08 35.9796V35.8415C-4.81374e-05 35.2754 0.113203 34.7149 0.333286 34.192C0.553368 33.669 0.875972 33.1938 1.28267 32.7936C1.68937 32.3933 2.1722 32.0758 2.70359 31.8592C3.23498 31.6427 3.80452 31.5312 4.37968 31.5313C5.54111 31.5314 6.65491 31.9856 7.4761 32.7939C8.29729 33.6022 8.75862 34.6985 8.75862 35.8415V35.9796C8.75862 37.1227 8.29729 38.2189 7.4761 39.0272C6.65491 39.8355 5.54111 40.2897 4.37968 40.2899Z" fill="url(#paint2_linear_319_1308)"/>
<g id="Group 1000004378">
<path id="Vector_4" d="M112.984 45.7564C112.383 39.7053 110.71 33.8087 108.042 28.3412C107.981 28.2144 107.873 28.1157 107.741 28.0652C107.609 28.0147 107.463 28.0161 107.332 28.0692L107.203 28.1212C107.133 28.1499 107.069 28.1927 107.015 28.2471C106.961 28.3015 106.92 28.3663 106.892 28.4374C106.865 28.5086 106.853 28.5846 106.856 28.6607C106.859 28.7368 106.878 28.8115 106.912 28.88C107.289 29.6509 107.657 30.4599 108.007 31.2846C109.985 35.9474 111.244 40.8816 111.743 45.92C111.751 46.0062 111.78 46.0892 111.826 46.1624C111.872 46.2356 111.935 46.297 112.01 46.3417C112.084 46.3864 112.168 46.4131 112.254 46.4198C112.341 46.4264 112.428 46.4128 112.508 46.38L112.64 46.3261C112.751 46.2809 112.845 46.2009 112.907 46.0983C112.969 45.9956 112.996 45.8756 112.984 45.7564Z" fill="#444444"/>
<path id="Vector_5" d="M32.6372 10.3344C32.7264 10.4311 32.8491 10.4928 32.9821 10.5078C33.1151 10.5228 33.2492 10.4901 33.3589 10.4157C34.0992 9.91396 34.8706 9.42404 35.6515 8.95988C35.7195 8.9194 35.7776 8.86496 35.8215 8.80041C35.8655 8.73586 35.8943 8.66276 35.9059 8.58626C35.9175 8.50977 35.9116 8.43175 35.8886 8.35771C35.8657 8.28366 35.8262 8.21538 35.773 8.15769L35.6837 8.06072C35.5983 7.96801 35.482 7.90734 35.355 7.88936C35.228 7.87138 35.0986 7.89724 34.9894 7.9624C34.198 8.43469 33.409 8.93581 32.6421 9.45218C32.5788 9.49489 32.5255 9.55011 32.4859 9.6142C32.4462 9.67829 32.421 9.74979 32.412 9.82399C32.4029 9.89819 32.4102 9.9734 32.4334 10.0447C32.4566 10.1159 32.4952 10.1816 32.5465 10.2374L32.6372 10.3344Z" fill="#444444"/>
<path id="Vector_6" d="M27.1395 16.0817C28.4651 14.8009 29.8611 13.59 31.3214 12.4543C31.3812 12.4078 31.4306 12.3499 31.4664 12.2843C31.5023 12.2187 31.5239 12.1466 31.5298 12.0726C31.5358 11.9986 31.5261 11.9242 31.5012 11.854C31.4763 11.7838 31.4369 11.7192 31.3852 11.6643L31.2914 11.5645C31.195 11.4622 31.0619 11.3992 30.9191 11.3884C30.7764 11.3776 30.6347 11.4197 30.5229 11.5063C20.0316 19.6471 13.2372 31.1869 11.3921 43.9998C11.3746 44.1212 11.4 44.2446 11.4641 44.3503C11.5282 44.4559 11.6273 44.5375 11.7453 44.582L11.8806 44.6326C11.9598 44.6623 12.0449 44.6743 12.1295 44.6677C12.2142 44.6611 12.2962 44.6361 12.3694 44.5945C12.4426 44.5528 12.5051 44.4957 12.5523 44.4274C12.5994 44.3591 12.6299 44.2814 12.6415 44.2001C14.1736 33.5496 19.2648 23.6752 27.1395 16.081V16.0817Z" fill="#444444"/>
<path id="Vector_7" d="M82.2403 98.4399C82.2127 98.3714 82.1717 98.3092 82.1196 98.2571C82.0676 98.2049 82.0057 98.1638 81.9375 98.1363C81.8694 98.1088 81.7964 98.0953 81.723 98.0968C81.6495 98.0983 81.5772 98.1146 81.5102 98.1448L81.4702 98.1621C81.446 98.1723 81.4215 98.1826 81.4103 98.1878C75.2863 100.794 68.7804 102.115 62.0727 102.115C59.9739 102.116 57.8771 101.985 55.7946 101.723C55.7177 101.713 55.6396 101.72 55.5655 101.743C55.4915 101.766 55.4231 101.805 55.365 101.856C55.3068 101.908 55.2602 101.971 55.2283 102.042C55.1964 102.113 55.1798 102.19 55.1797 102.268V102.404C55.1797 102.538 55.2283 102.667 55.3163 102.768C55.4044 102.868 55.5259 102.933 55.6579 102.949C57.7858 103.218 59.9282 103.352 62.0727 103.352C68.9889 103.352 75.6931 101.982 81.9989 99.2785C82.1307 99.2221 82.2353 99.1159 82.29 98.9827C82.3447 98.8495 82.3452 98.7 82.2915 98.5664L82.2403 98.4399Z" fill="#444444"/>
<path id="Vector_8" d="M61.7492 4.37988C49.233 4.37988 37.4655 9.22295 28.6152 18.0167C19.7649 26.8103 14.8906 38.5019 14.8906 50.9388V52.4141C14.8906 64.8506 19.7649 76.5425 28.6152 85.3362C37.4655 94.1299 49.2323 98.973 61.7492 98.973C74.2662 98.973 86.033 94.1299 94.8833 85.3362C103.734 76.5425 108.608 64.851 108.608 52.4141V50.9388C108.608 38.5026 103.734 26.8107 94.8833 18.0167C86.033 9.22261 74.2655 4.37988 61.7492 4.37988ZM107.32 50.9388V52.4141C107.32 58.5273 106.116 64.4569 103.74 70.0387C99.1076 80.8928 90.4113 89.5332 79.4873 94.1355C73.8696 96.4967 67.9011 97.6938 61.7492 97.6938C55.5974 97.6938 49.6289 96.4967 44.0112 94.1355C33.0874 89.5337 24.3913 80.8937 19.7593 70.0401C17.3829 64.4583 16.1784 58.528 16.1784 52.4155V50.9402C16.1784 44.8269 17.3829 38.8973 19.7593 33.3155C24.391 22.4614 33.0872 13.8209 44.0112 9.21878C49.6289 6.85794 55.5974 5.66082 61.7492 5.66082C67.9011 5.66082 73.8696 6.85794 79.4873 9.21878C90.4108 13.8204 99.107 22.4598 103.74 33.3128C106.116 38.8959 107.32 44.8248 107.32 50.9388Z" fill="#444444"/>
<path id="Vector_9" d="M69.2278 77.0764H48.137C44.7758 77.0764 42.041 74.3562 42.041 71.0121V32.3399C42.041 28.9965 44.7758 26.2764 48.137 26.2764H69.2278C72.589 26.2764 75.3238 28.9965 75.3238 32.3399V34.5974C75.3196 34.7892 75.24 34.9718 75.1022 35.106C74.9643 35.2402 74.7791 35.3154 74.5862 35.3154C74.3933 35.3154 74.2081 35.2402 74.0703 35.106C73.9324 34.9718 73.8529 34.7892 73.8487 34.5974V32.3399C73.8487 29.8054 71.7756 27.7429 69.2278 27.7429H48.137C45.5891 27.7429 43.5161 29.8054 43.5161 32.3399V71.0121C43.5161 73.5473 45.5891 75.6098 48.137 75.6098H69.2278C71.7756 75.6098 73.8487 73.5473 73.8487 71.0121V68.3998C73.8529 68.208 73.9324 68.0254 74.0703 67.8912C74.2081 67.757 74.3933 67.6818 74.5862 67.6818C74.7791 67.6818 74.9643 67.757 75.1022 67.8912C75.24 68.0254 75.3196 68.208 75.3238 68.3998V71.0121C75.3227 74.3562 72.588 77.0764 69.2278 77.0764Z" fill="#444444"/>
<path id="Vector_10" d="M62.3439 32.4068H55.0241C54.9304 32.4093 54.8372 32.3886 54.75 32.3457C54.6628 32.3028 54.5834 32.2387 54.5164 32.1572C54.4493 32.0756 54.3961 31.9782 54.3598 31.8707C54.3234 31.7632 54.3047 31.6478 54.3047 31.5311C54.3047 31.4145 54.3234 31.2991 54.3598 31.1916C54.3961 31.0841 54.4493 30.9867 54.5164 30.9051C54.5834 30.8235 54.6628 30.7594 54.75 30.7166C54.8372 30.6737 54.9304 30.6529 55.0241 30.6555H62.3439C62.4376 30.6529 62.5308 30.6737 62.618 30.7166C62.7052 30.7594 62.7846 30.8235 62.8516 30.9051C62.9186 30.9867 62.9719 31.0841 63.0082 31.1916C63.0446 31.2991 63.0633 31.4145 63.0633 31.5311C63.0633 31.6478 63.0446 31.7632 63.0082 31.8707C62.9719 31.9782 62.9186 32.0756 62.8516 32.1572C62.7846 32.2387 62.7052 32.3028 62.618 32.3457C62.5308 32.3886 62.4376 32.4093 62.3439 32.4068Z" fill="#444444"/>
<path id="Vector_11" d="M64.0805 71.8211H54.1612C54.0656 71.8223 53.9706 71.812 53.8817 71.7905C53.7928 71.7691 53.7118 71.737 53.6435 71.6963C53.5752 71.6555 53.5209 71.6068 53.4839 71.553C53.4468 71.4993 53.4277 71.4416 53.4277 71.3832C53.4277 71.3249 53.4468 71.2672 53.4839 71.2135C53.5209 71.1597 53.5752 71.111 53.6435 71.0702C53.7118 71.0294 53.7928 70.9974 53.8817 70.976C53.9706 70.9545 54.0656 70.9441 54.1612 70.9454H64.0805C64.1761 70.9441 64.2711 70.9545 64.36 70.976C64.4489 70.9974 64.5298 71.0294 64.5981 71.0702C64.6665 71.111 64.7207 71.1597 64.7578 71.2135C64.7949 71.2672 64.8139 71.3249 64.8139 71.3832C64.8139 71.4416 64.7949 71.4993 64.7578 71.553C64.7207 71.6068 64.6665 71.6555 64.5981 71.6963C64.5298 71.737 64.4489 71.7691 64.36 71.7905C64.2711 71.812 64.1761 71.8223 64.0805 71.8211Z" fill="#444444"/>
<path id="Rectangle 35886 (Stroke)" fill-rule="evenodd" clip-rule="evenodd" d="M91.0654 42.6135H60.4617C58.7971 42.6135 57.4477 44.0177 57.4477 45.7499V56.727C57.4477 58.4591 58.7971 59.8633 60.4617 59.8633H91.0654C92.7299 59.8633 94.0794 58.4591 94.0794 56.727V45.7499C94.0794 44.0177 92.7299 42.6135 91.0654 42.6135ZM60.4617 41.166C58.0289 41.166 56.0566 43.2183 56.0566 45.7499V56.727C56.0566 59.2586 58.0289 61.3108 60.4617 61.3108H91.0654C93.4982 61.3108 95.4704 59.2586 95.4704 56.727V45.7499C95.4704 43.2183 93.4982 41.166 91.0654 41.166H60.4617Z" fill="#444444"/>
</g>
<path id="Vector_12" d="M46.2471 11.3803C45.5007 11.4141 44.7548 11.3027 44.0521 11.0525C43.3494 10.8024 42.7036 10.4183 42.1516 9.92227C41.5997 9.42623 41.1523 8.82795 40.8351 8.1616C40.5179 7.49524 40.3372 6.77388 40.3031 6.03869L40.295 5.85899C40.2262 4.37448 40.7589 2.92384 41.7759 1.82617C42.793 0.7285 44.2111 0.0737105 45.7183 0.00583997C47.2256 -0.0619572 48.6985 0.462758 49.813 1.46456C50.9275 2.46636 51.5923 3.86319 51.6612 5.34778L51.6693 5.52715C51.7382 7.01149 51.2056 8.46199 50.1888 9.55963C49.1719 10.6573 47.7541 11.3122 46.2471 11.3803Z" fill="url(#paint3_linear_319_1308)"/>
<path id="Vector_13" d="M18.3932 85.8342C12.5884 85.8342 7.88281 81.2028 7.88281 75.4896V75.158C7.88281 69.4448 12.5884 64.8135 18.3932 64.8135C24.1979 64.8135 28.9035 69.4448 28.9035 75.158V75.4896C28.9035 81.2028 24.1979 85.8342 18.3932 85.8342Z" fill="url(#paint4_linear_319_1308)"/>
<path id="Vector_14" d="M107.292 70.0693C103.181 70.0693 99.8477 66.7886 99.8477 62.7415V62.5075C99.8477 58.4605 103.181 55.1797 107.292 55.1797C111.404 55.1797 114.737 58.4605 114.737 62.5075V62.7415C114.737 66.7886 111.404 70.0693 107.292 70.0693Z" fill="url(#paint5_linear_319_1308)"/>
</g>
<defs>
<linearGradient id="paint0_linear_319_1308" x1="123.481" y1="40.4835" x2="124.325" y2="47.5183" gradientUnits="userSpaceOnUse">
<stop stop-color="#5067CA"/>
<stop offset="1" stop-color="#3688D7"/>
</linearGradient>
<linearGradient id="paint1_linear_319_1308" x1="93.7012" y1="93.9111" x2="94.5446" y2="100.946" gradientUnits="userSpaceOnUse">
<stop stop-color="#5068CA"/>
<stop offset="1" stop-color="#358AD8"/>
</linearGradient>
<linearGradient id="paint2_linear_319_1308" x1="0.779807" y1="31.8618" x2="7.4117" y2="39.5629" gradientUnits="userSpaceOnUse">
<stop stop-color="#EE0C37"/>
<stop offset="0.22" stop-color="#E90B35"/>
<stop offset="0.48" stop-color="#DB0830"/>
<stop offset="0.75" stop-color="#C30429"/>
<stop offset="0.95" stop-color="#AD0021"/>
</linearGradient>
<linearGradient id="paint3_linear_319_1308" x1="40.2903" y1="5.69323" x2="51.6768" y2="5.69323" gradientUnits="userSpaceOnUse">
<stop stop-color="#EE0C37"/>
<stop offset="0.22" stop-color="#E90B35"/>
<stop offset="0.48" stop-color="#DB0830"/>
<stop offset="0.75" stop-color="#C30429"/>
<stop offset="0.95" stop-color="#AD0021"/>
</linearGradient>
<linearGradient id="paint4_linear_319_1308" x1="9.75459" y1="65.6068" x2="25.6709" y2="84.0882" gradientUnits="userSpaceOnUse">
<stop stop-color="#EE0C37"/>
<stop offset="0.22" stop-color="#E90B35"/>
<stop offset="0.48" stop-color="#DB0830"/>
<stop offset="0.75" stop-color="#C30429"/>
<stop offset="0.95" stop-color="#AD0021"/>
</linearGradient>
<linearGradient id="paint5_linear_319_1308" x1="101.174" y1="55.7405" x2="112.448" y2="68.832" gradientUnits="userSpaceOnUse">
<stop stop-color="#2F92DB"/>
<stop offset="1" stop-color="#5562C8"/>
</linearGradient>
</defs>
</svg>
