<svg width="157" height="127" viewBox="0 0 157 127" fill="none" xmlns="http://www.w3.org/2000/svg">
<g id="Group 1000004398">
<g id="Group 1000004387">
<path id="Vector" d="M139.039 55.7612C138.288 48.4375 136.197 41.3008 132.862 34.6834C132.785 34.5299 132.651 34.4105 132.486 34.3493C132.321 34.2882 132.138 34.2899 131.974 34.3541L131.814 34.4171C131.725 34.4518 131.645 34.5036 131.578 34.5695C131.511 34.6353 131.459 34.7137 131.425 34.7998C131.391 34.8859 131.375 34.9779 131.38 35.0701C131.384 35.1622 131.407 35.2526 131.449 35.3355C131.92 36.2685 132.381 37.2477 132.818 38.2459C135.29 43.8893 136.865 49.8613 137.488 55.9593C137.499 56.0636 137.534 56.1641 137.592 56.2527C137.65 56.3413 137.729 56.4156 137.822 56.4697C137.914 56.5238 138.019 56.5562 138.127 56.5642C138.236 56.5722 138.344 56.5557 138.445 56.516L138.609 56.4509C138.749 56.3961 138.866 56.2993 138.943 56.175C139.02 56.0508 139.054 55.9056 139.039 55.7612Z" fill="#444444"/>
<path id="Vector_2" d="M40.7941 11.821C40.9055 11.942 41.0589 12.0191 41.2252 12.0378C41.3915 12.0566 41.5591 12.0156 41.6962 11.9228C42.6215 11.2955 43.5858 10.6831 44.5619 10.1029C44.647 10.0523 44.7195 9.98428 44.7745 9.90359C44.8294 9.8229 44.8654 9.73152 44.8799 9.63591C44.8944 9.54029 44.887 9.44277 44.8583 9.35021C44.8297 9.25765 44.7803 9.1723 44.7139 9.10019L44.6022 8.97898C44.4955 8.86308 44.35 8.78725 44.1913 8.76478C44.0326 8.7423 43.8708 8.77462 43.7343 8.85608C42.745 9.44644 41.7588 10.0728 40.8002 10.7183C40.7211 10.7717 40.6545 10.8407 40.6049 10.9208C40.5553 11.0009 40.5238 11.0903 40.5125 11.1831C40.5012 11.2758 40.5104 11.3698 40.5393 11.4589C40.5683 11.548 40.6165 11.6301 40.6807 11.6998L40.7941 11.821Z" fill="#444444"/>
<path id="Vector_3" d="M33.4325 18.956C35.0175 17.369 36.6866 15.8686 38.4326 14.4614C38.5041 14.4038 38.5631 14.3321 38.606 14.2508C38.6489 14.1695 38.6747 14.0802 38.6818 13.9885C38.689 13.8968 38.6773 13.8047 38.6476 13.7176C38.6179 13.6306 38.5707 13.5506 38.5089 13.4826L38.3968 13.359C38.2815 13.2322 38.1223 13.1541 37.9516 13.1407C37.7809 13.1273 37.6115 13.1796 37.4779 13.2868C24.9339 23.3736 16.8102 37.6718 14.6041 53.5475C14.5832 53.6978 14.6135 53.8508 14.6901 53.9817C14.7668 54.1125 14.8853 54.2137 15.0264 54.2688L15.1882 54.3314C15.2828 54.3683 15.3846 54.3832 15.4858 54.375C15.587 54.3668 15.6851 54.3358 15.7726 54.2842C15.8602 54.2327 15.9349 54.1619 15.9912 54.0773C16.0476 53.9926 16.0841 53.8963 16.098 53.7956C17.9298 40.5992 24.0171 28.3645 33.4325 18.9551V18.956Z" fill="#444444"/>
<path id="Vector_4" d="M101.344 120.859C101.311 120.773 101.26 120.695 101.197 120.63C101.133 120.565 101.057 120.514 100.974 120.479C100.891 120.445 100.801 120.428 100.712 120.43C100.622 120.432 100.533 120.452 100.451 120.49L100.403 120.511C100.373 120.524 100.343 120.537 100.329 120.544C92.8389 123.801 84.8814 125.453 76.6771 125.453C74.11 125.454 71.5454 125.29 68.9982 124.962C68.9041 124.95 68.8086 124.959 68.718 124.988C68.6274 125.016 68.5438 125.064 68.4727 125.129C68.4016 125.193 68.3446 125.273 68.3055 125.361C68.2665 125.45 68.2462 125.547 68.2461 125.644V125.814C68.2461 125.981 68.3055 126.143 68.4132 126.268C68.5209 126.394 68.6695 126.475 68.831 126.495C71.4336 126.831 74.0541 126.999 76.6771 126.999C85.1364 126.999 93.3364 125.286 101.049 121.907C101.21 121.837 101.338 121.704 101.405 121.537C101.472 121.371 101.473 121.184 101.407 121.017L101.344 120.859Z" fill="#444444"/>
<path id="Vector_5" d="M76.6375 4.74414C61.2359 4.74414 46.7556 10.7419 35.865 21.6323C24.9745 32.5226 18.9766 47.0017 18.9766 62.4039V64.231C18.9766 79.6327 24.9745 94.1122 35.865 105.003C46.7556 115.893 61.235 121.891 76.6375 121.891C92.0399 121.891 106.519 115.893 117.41 105.003C128.3 94.1122 134.298 79.6331 134.298 64.231V62.4039C134.298 47.0026 128.3 32.523 117.41 21.6323C106.519 10.7415 92.0391 4.74414 76.6375 4.74414ZM132.714 62.4039V64.231C132.714 71.8018 131.232 79.1451 128.308 86.0578C122.608 99.4997 111.907 110.2 98.4647 115.9C91.5519 118.824 84.2076 120.307 76.6375 120.307C69.0674 120.307 61.723 118.824 54.8103 115.9C41.3683 110.201 30.6674 99.5009 24.9676 86.0595C22.0434 79.1468 20.5612 71.8026 20.5612 64.2327V62.4056C20.5612 54.8348 22.0434 47.4915 24.9676 40.5788C30.6671 27.1368 41.368 16.4361 54.8103 10.7368C61.723 7.81303 69.0674 6.33048 76.6375 6.33048C84.2076 6.33048 91.5519 7.81303 98.4647 10.7368C111.906 16.4355 122.607 27.1347 128.308 40.5754C131.232 47.4897 132.714 54.8322 132.714 62.4039Z" fill="#444444"/>
<path id="Vector_6" d="M85.5747 94.8851H59.6738C55.546 94.8851 52.1875 91.5044 52.1875 87.3483V39.2859C52.1875 35.1306 55.546 31.75 59.6738 31.75H85.5747C89.7026 31.75 93.0611 35.1306 93.0611 39.2859V42.0915C93.0559 42.3299 92.9582 42.5568 92.7889 42.7236C92.6196 42.8904 92.3922 42.9838 92.1553 42.9838C91.9184 42.9838 91.691 42.8904 91.5217 42.7236C91.3524 42.5568 91.2547 42.3299 91.2495 42.0915V39.2859C91.2495 36.1359 88.7037 33.5727 85.5747 33.5727H59.6738C56.5449 33.5727 53.999 36.1359 53.999 39.2859V87.3483C53.999 90.4991 56.5449 93.0624 59.6738 93.0624H85.5747C88.7037 93.0624 91.2495 90.4991 91.2495 87.3483V84.1017C91.2547 83.8633 91.3524 83.6364 91.5217 83.4696C91.691 83.3028 91.9184 83.2094 92.1553 83.2094C92.3922 83.2094 92.6196 83.3028 92.7889 83.4696C92.9582 83.6364 93.0559 83.8633 93.0611 84.1017V87.3483C93.0598 91.5044 89.7013 94.8851 85.5747 94.8851Z" fill="#444444"/>
<path id="Vector_7" d="M77.5324 39.0491H68.0777C67.9566 39.0517 67.8362 39.0301 67.7236 38.9855C67.611 38.9408 67.5084 38.874 67.4218 38.7891C67.3353 38.7041 67.2665 38.6027 67.2196 38.4907C67.1726 38.3787 67.1484 38.2584 67.1484 38.137C67.1484 38.0155 67.1726 37.8952 67.2196 37.7832C67.2665 37.6713 67.3353 37.5698 67.4218 37.4849C67.5084 37.3999 67.611 37.3331 67.7236 37.2885C67.8362 37.2438 67.9566 37.2222 68.0777 37.2248H77.5324C77.6535 37.2222 77.7739 37.2438 77.8865 37.2885C77.9991 37.3331 78.1017 37.3999 78.1882 37.4849C78.2748 37.5698 78.3436 37.6713 78.3905 37.7832C78.4375 37.8952 78.4617 38.0155 78.4617 38.137C78.4617 38.2584 78.4375 38.3787 78.3905 38.4907C78.3436 38.6027 78.2748 38.7041 78.1882 38.7891C78.1017 38.874 77.9991 38.9408 77.8865 38.9855C77.7739 39.0301 77.6535 39.0517 77.5324 39.0491Z" fill="#444444"/>
<path id="Vector_8" d="M78.9816 88.3167H66.2645C66.142 88.3193 66.0202 88.2977 65.9062 88.253C65.7923 88.2084 65.6885 88.1416 65.6009 88.0567C65.5133 87.9717 65.4437 87.8702 65.3962 87.7583C65.3487 87.6463 65.3242 87.526 65.3242 87.4045C65.3242 87.2831 65.3487 87.1628 65.3962 87.0508C65.4437 86.9388 65.5133 86.8374 65.6009 86.7524C65.6885 86.6675 65.7923 86.6007 65.9062 86.5561C66.0202 86.5114 66.142 86.4898 66.2645 86.4924H78.9816C79.1041 86.4898 79.2259 86.5114 79.3399 86.5561C79.4539 86.6007 79.5577 86.6675 79.6453 86.7524C79.7328 86.8374 79.8024 86.9388 79.8499 87.0508C79.8975 87.1628 79.9219 87.2831 79.9219 87.4045C79.9219 87.526 79.8975 87.6463 79.8499 87.7583C79.8024 87.8702 79.7328 87.9717 79.6453 88.0567C79.5577 88.1416 79.4539 88.2084 79.3399 88.253C79.2259 88.2977 79.1041 88.3193 78.9816 88.3167Z" fill="#444444"/>
<path id="Vector_9" d="M91.5992 79.9243C91.514 79.9245 91.4293 79.9125 91.3476 79.8887C91.1927 79.8458 75.9062 75.2337 75.9062 53.0804C75.9063 52.8451 75.9986 52.6191 76.1634 52.4499C76.3283 52.2808 76.553 52.1818 76.7901 52.1738C83.4254 51.9525 87.2587 50.4497 90.9381 46.6301C91.0233 46.5413 91.1259 46.4707 91.2396 46.4225C91.3532 46.3743 91.4756 46.3495 91.5992 46.3496C91.7229 46.3496 91.8453 46.3746 91.959 46.423C92.0727 46.4715 92.1752 46.5424 92.2604 46.6314C95.7417 50.2635 100.493 52.1287 106.383 52.1738C106.625 52.1754 106.856 52.2716 107.026 52.4414C107.196 52.6113 107.291 52.841 107.291 53.0804C107.291 75.1938 92.0078 79.8424 91.8543 79.8883C91.7715 79.9123 91.6856 79.9245 91.5992 79.9243ZM77.7436 53.948C78.096 72.4927 89.742 77.3987 91.604 78.063C93.5572 77.3884 105.099 72.6132 105.455 53.9665C99.8258 53.7495 95.1731 51.928 91.6009 48.5416C87.951 52.055 83.9305 53.6191 77.7436 53.948Z" fill="#444444"/>
<path id="Vector_10" d="M90.2475 68.2441C90.1267 68.2444 90.0071 68.221 89.8955 68.1753C89.7839 68.1295 89.6826 68.0622 89.5973 67.9774L84.2009 62.6266C84.0311 62.4551 83.9364 62.224 83.9375 61.9836C83.9386 61.7432 84.0353 61.513 84.2066 61.343C84.378 61.1729 84.6101 61.0768 84.8525 61.0755C85.0949 61.0742 85.3281 61.1678 85.5012 61.336L90.2475 66.0395L97.6816 58.6709C97.7664 58.5834 97.868 58.5135 97.9804 58.4654C98.0928 58.4172 98.2137 58.3918 98.3361 58.3907C98.4586 58.3895 98.58 58.4125 98.6933 58.4585C98.8066 58.5044 98.9095 58.5723 98.9961 58.6582C99.0826 58.7441 99.1509 58.8463 99.1971 58.9587C99.2433 59.0711 99.2664 59.1916 99.265 59.3129C99.2637 59.4343 99.2379 59.5542 99.1892 59.6656C99.1405 59.777 99.0699 59.8776 98.9815 59.9616L90.8977 67.9778C90.8124 68.0626 90.7111 68.1298 90.5995 68.1755C90.4879 68.2212 90.3683 68.2445 90.2475 68.2441Z" fill="#444444"/>
</g>
<path id="Vector_11" d="M132.473 84.6681C127.233 84.6681 122.984 80.4063 122.984 75.1491V74.8452C122.984 69.588 127.233 65.3262 132.473 65.3262C137.713 65.3262 141.961 69.588 141.961 74.8452V75.1491C141.961 80.4063 137.713 84.6681 132.473 84.6681Z" fill="url(#paint0_linear_319_1280)"/>
<path id="Vector_12" d="M150.839 57.033C150.447 56.7664 150.111 56.4254 149.851 56.0295C149.591 55.6337 149.412 55.1907 149.324 54.7259C149.236 54.2611 149.241 53.7836 149.338 53.3207C149.436 52.8577 149.624 52.4184 149.892 52.0278L149.957 51.9325C150.225 51.5418 150.567 51.2075 150.965 50.9486C151.362 50.6897 151.807 50.5114 152.274 50.4237C152.74 50.3361 153.22 50.3408 153.685 50.4377C154.15 50.5346 154.591 50.7218 154.983 50.9885C155.775 51.5271 156.32 52.357 156.498 53.2957C156.676 54.2343 156.472 55.2048 155.931 55.9937L155.866 56.089C155.598 56.4797 155.255 56.814 154.858 57.0729C154.46 57.3318 154.016 57.5101 153.549 57.5978C153.082 57.6855 152.603 57.6807 152.138 57.5838C151.673 57.4869 151.232 57.2997 150.839 57.033Z" fill="url(#paint1_linear_319_1280)"/>
<path id="Vector_13" d="M114.138 123.392C113.266 122.799 112.667 121.887 112.471 120.854C112.276 119.821 112.5 118.754 113.095 117.886L113.167 117.781C113.762 116.913 114.679 116.316 115.715 116.121C116.752 115.927 117.824 116.15 118.696 116.743C119.567 117.335 120.167 118.248 120.362 119.281C120.558 120.313 120.333 121.381 119.738 122.249L119.667 122.353C119.072 123.221 118.155 123.818 117.118 124.013C116.081 124.208 115.009 123.984 114.138 123.392Z" fill="url(#paint2_linear_319_1280)"/>
<path id="Vector_14" d="M57.2713 14.5901C56.3143 14.6334 55.3581 14.4907 54.4572 14.1699C53.5563 13.8492 52.7284 13.3568 52.0207 12.7209C51.3131 12.0849 50.7395 11.3179 50.3329 10.4636C49.9263 9.60929 49.6945 8.68446 49.6508 7.74191L49.6404 7.51152C49.5522 5.60831 50.2351 3.74851 51.539 2.34124C52.8429 0.933974 54.661 0.0945007 56.5933 0.00748714C58.5258 -0.0794323 60.4141 0.59328 61.843 1.87764C63.2718 3.162 64.1242 4.9528 64.2125 6.85613L64.2229 7.08609C64.3112 8.98909 63.6284 10.8487 62.3248 12.2559C61.0211 13.6632 59.2034 14.5028 57.2713 14.5901Z" fill="url(#paint3_linear_319_1280)"/>
<path id="Vector_15" d="M5.10962 48.5377C4.4386 48.5378 3.77414 48.4077 3.15419 48.1551C2.53424 47.9024 1.97093 47.532 1.49645 47.065C1.02197 46.5981 0.645596 46.0437 0.388833 45.4336C0.132071 44.8234 -5.61603e-05 44.1695 1.7907e-08 43.5091V43.3479C-5.61603e-05 42.6875 0.132071 42.0336 0.388833 41.4235C0.645596 40.8134 1.02197 40.259 1.49645 39.792C1.97093 39.3251 2.53424 38.9547 3.15419 38.702C3.77414 38.4493 4.4386 38.3193 5.10962 38.3193C6.46463 38.3196 7.76407 38.8495 8.72212 39.7925C9.68018 40.7355 10.2184 42.0144 10.2184 43.3479V43.5091C10.2184 44.8427 9.68018 46.1216 8.72212 47.0646C7.76407 48.0076 6.46463 48.5375 5.10962 48.5377Z" fill="url(#paint4_linear_319_1280)"/>
<path id="Vector_16" d="M22.9917 104.739C15.9373 104.739 10.2188 99.111 10.2188 92.1678V91.7649C10.2188 84.8217 15.9373 79.1934 22.9917 79.1934C30.0462 79.1934 35.7647 84.8217 35.7647 91.7649V92.1678C35.7647 99.111 30.0462 104.739 22.9917 104.739Z" fill="url(#paint5_linear_319_1280)"/>
</g>
<defs>
<linearGradient id="paint0_linear_319_1280" x1="124.674" y1="66.0546" x2="139.359" y2="82.7842" gradientUnits="userSpaceOnUse">
<stop stop-color="#3985D6"/>
<stop offset="0.9" stop-color="#5068CA"/>
</linearGradient>
<linearGradient id="paint1_linear_319_1280" x1="152.372" y1="49.55" x2="153.376" y2="57.9247" gradientUnits="userSpaceOnUse">
<stop stop-color="#3E7ED3"/>
<stop offset="0.9" stop-color="#5068CA"/>
</linearGradient>
<linearGradient id="paint2_linear_319_1280" x1="115.822" y1="115.16" x2="116.926" y2="124.373" gradientUnits="userSpaceOnUse">
<stop stop-color="#3E7DD3"/>
<stop offset="1" stop-color="#4E69CA"/>
</linearGradient>
<linearGradient id="paint3_linear_319_1280" x1="49.6344" y1="7.29902" x2="64.2324" y2="7.29902" gradientUnits="userSpaceOnUse">
<stop stop-color="#19B47B"/>
<stop offset="1" stop-color="#099C66"/>
</linearGradient>
<linearGradient id="paint4_linear_319_1280" x1="5.1092" y1="38.3193" x2="5.1092" y2="48.5377" gradientUnits="userSpaceOnUse">
<stop stop-color="#1BB77E"/>
<stop offset="1" stop-color="#008D5A"/>
</linearGradient>
<linearGradient id="paint5_linear_319_1280" x1="12.4935" y1="80.1575" x2="31.8362" y2="102.618" gradientUnits="userSpaceOnUse">
<stop stop-color="#18B27A"/>
<stop offset="0.95" stop-color="#04945F"/>
</linearGradient>
</defs>
</svg>
