<svg width="35" height="35" viewBox="0 0 35 35" fill="none" xmlns="http://www.w3.org/2000/svg">
<circle cx="17.5" cy="17.5" r="17.5" fill="#3B82F6"/>
<path d="M18.6256 10C19.6976 10 20.2336 10.7296 20.2336 11.5656C20.2336 12.6096 19.3024 13.5752 18.0904 13.5752C17.0752 13.5752 16.4832 12.9752 16.5112 11.9832C16.5112 11.1488 17.216 10 18.6256 10ZM15.3272 26C14.4808 26 13.8608 25.4784 14.4528 23.1808L15.424 19.1072C15.5928 18.456 15.6208 18.1944 15.424 18.1944C15.1704 18.1944 14.0728 18.644 13.4224 19.088L13 18.384C15.0576 16.6352 17.4248 15.6104 18.4408 15.6104C19.2864 15.6104 19.4272 16.6288 19.0048 18.1944L17.892 22.476C17.6952 23.232 17.7792 23.4928 17.9768 23.4928C18.2304 23.4928 19.0624 23.1792 19.88 22.5272L20.36 23.1784C18.3584 25.216 16.172 26 15.3272 26Z" fill="white"/>
</svg>
