<svg width="143" height="40" viewBox="0 0 143 40" fill="none" xmlns="http://www.w3.org/2000/svg">
<path fill-rule="evenodd" clip-rule="evenodd" d="M117.167 8.28621L118.896 6.61426L120.631 8.28621V9.76389L118.896 8.09782L117.167 9.76389V8.28621Z" fill="#D4D4D4"/>
<path fill-rule="evenodd" clip-rule="evenodd" d="M117.167 10.9847L118.896 8.81885L120.631 10.9847V12.9134L118.896 10.7398L117.167 12.9134V10.9847Z" fill="#101041"/>
<path d="M47.5179 22.0375C49.2802 20.4718 54.0821 16.4465 56.664 14.2289H60.6121L52.9277 20.5726L61.4181 30.5516H57.4769L50.6463 22.3197L47.5316 24.7658V30.5516H44.41V6.29944H47.5316L47.5179 22.0375Z" fill="#101041"/>
<path d="M63.9377 18.5067C63.9377 17.0079 63.9377 15.4955 63.9377 14.0035H66.9379C66.9919 14.494 67.0595 16.2313 67.0595 17.7301C67.6071 16.4304 68.5385 15.3323 69.7269 14.585C70.9153 13.8378 72.3031 13.4778 73.7016 13.5538V16.531C69.9245 16.4901 67.0595 18.7724 67.0595 23.6504V30.5519H63.9715L63.9377 18.5067Z" fill="#101041"/>
<path d="M78.6406 22.751C78.8141 25.8421 80.909 28.1108 84.1983 28.1108C86.7269 28.1108 88.128 27.0826 88.9954 25.5171H92.0444C91.1704 27.9184 88.8819 30.5519 84.0382 30.5519C78.2336 30.5519 75.5916 26.333 75.5916 22.0943C75.5916 17.2254 78.8541 13.5438 83.9648 13.5438C90.1163 13.5438 92.2846 18.0214 92.2846 21.955C92.2846 22.2269 92.2846 22.4392 92.2846 22.751H78.6406ZM89.1021 20.5951C88.962 18.6847 87.9412 15.8987 83.9381 15.8987C80.6021 15.8987 78.9876 17.9617 78.7073 20.5951H89.1021Z" fill="#101041"/>
<path d="M111.779 6.29944V25.4737C111.779 27.0143 111.779 28.5945 111.812 30.102H108.886C108.8 29.4408 108.774 28.4557 108.761 27.6623C107.95 29.0243 106.586 30.5516 102.875 30.5516C98.2623 30.5516 95.1188 27.0804 95.1188 22.2075C95.1188 16.918 99.0729 13.6121 103.251 13.6121C107.008 13.6121 108.306 15.318 108.761 16.085V6.29944H111.779ZM98.2228 22.1678C98.2228 25.1299 100.009 28.0524 103.495 28.0524C107.311 28.0524 108.873 25.5928 108.873 22.0422C108.873 18.4917 107.627 16.1378 103.6 16.1378C99.9824 16.1643 98.2228 19.1661 98.2228 22.2009V22.1678Z" fill="#101041"/>
<path d="M120.316 13.8586H117.796V30.5517H120.316V13.8586Z" fill="#101041"/>
<path d="M138.846 28.0093C137.874 29.6098 136.172 31.0059 132.594 31.0059C127.94 31.0059 124.411 27.41 124.411 22.5133C124.411 16.8061 128.732 13.5438 132.893 13.5438C136.887 13.5438 138.451 15.5052 138.846 16.3838C138.846 15.3146 138.888 14.5109 138.93 14.0001H142.049C142.049 15.3622 142.014 17.0989 142.014 18.6653V37.796H138.846V28.0093ZM127.683 22.343C127.683 25.7482 129.823 28.3703 133.15 28.3703C136.894 28.3703 138.909 26.2454 138.909 22.2408C138.909 18.713 137.304 16.1795 133.414 16.1795C129.524 16.1795 127.683 19.0535 127.683 22.343Z" fill="#101041"/>
<path d="M140.474 40.0001C141.691 40.0001 142.679 39.013 142.679 37.7953C142.679 36.5777 141.691 35.5906 140.474 35.5906C139.256 35.5906 138.269 36.5777 138.269 37.7953C138.269 39.013 139.256 40.0001 140.474 40.0001Z" fill="white"/>
<path d="M140.631 39.6858C141.588 39.6858 142.363 38.9102 142.363 37.9535C142.363 36.9968 141.588 36.2212 140.631 36.2212C139.674 36.2212 138.899 36.9968 138.899 37.9535C138.899 38.9102 139.674 39.6858 140.631 39.6858Z" fill="#318FDA"/>
<rect width="39.6854" height="39.3704" rx="19.6852" fill="url(#paint0_linear_3_289)"/>
<path d="M26.2041 7.95479L25.9351 7.79987L25.651 7.63627H25.6445C23.8137 6.64383 21.7632 6.12536 19.6802 6.12819V12.3816C20.7223 12.3818 21.7479 12.6425 22.6634 13.1399C22.7567 13.1905 22.8489 13.2436 22.94 13.2992C23.8338 13.845 24.5767 14.6055 25.1012 15.5115L25.9384 15.0294L30.5244 12.3848C29.4762 10.5716 27.9911 9.04884 26.2041 7.95479Z" fill="white"/>
<path d="M13.706 7.6336H13.6995L13.4165 7.79719L13.14 7.95645C11.3589 9.04836 9.87791 10.5659 8.83044 12.3724L13.4176 15.018L14.2537 15.5002C14.7772 14.5998 15.517 13.844 16.4063 13.3009C16.4995 13.2434 16.5949 13.1925 16.6904 13.1373H16.698C17.6125 12.6433 18.6362 12.3856 19.6758 12.3876V6.12551C17.591 6.12178 15.5385 6.64028 13.706 7.6336Z" fill="white"/>
<path d="M14.2528 15.5044L13.4167 15.0223L8.82958 12.3766C7.73396 14.2799 7.15735 16.4371 7.15735 18.6327C7.15735 20.8283 7.73396 22.9855 8.82958 24.8888L13.4167 22.2431L14.2528 21.761C13.705 20.8094 13.4167 19.7309 13.4167 18.6332C13.4167 17.5355 13.705 16.457 14.2528 15.5054V15.5044Z" fill="white"/>
<path d="M19.6758 25.853V24.8856C18.6362 24.8869 17.6127 24.6293 16.6979 24.1358H16.6903C16.5949 24.0838 16.4995 24.0275 16.4062 23.9712C15.5158 23.4259 14.7756 22.6674 14.2525 21.7643L13.4165 22.2464L8.82935 24.8921C9.87619 26.699 11.3573 28.2167 13.1389 29.308L13.4154 29.4672L13.6984 29.6308H13.7049C15.5383 30.6214 17.5898 31.14 19.6741 31.14C21.7585 31.14 23.81 30.6214 25.6434 29.6308H25.6499L25.934 29.4672L19.6758 25.853Z" fill="url(#paint1_linear_3_289)"/>
<path d="M30.5214 12.3766L25.9353 15.0212L25.0982 15.5033C25.6467 16.4546 25.9354 17.5332 25.9354 18.6311C25.9354 19.7289 25.6467 20.8075 25.0982 21.7588L19.676 18.6311V25.8519L25.9353 29.4618L31.878 32.8897L32.1903 33.0706V18.6289C32.1949 16.4343 31.6191 14.2775 30.5214 12.3766Z" fill="white"/>
<defs>
<linearGradient id="paint0_linear_3_289" x1="19.8427" y1="0" x2="19.8427" y2="39.3704" gradientUnits="userSpaceOnUse">
<stop stop-color="#2B97DD"/>
<stop offset="1" stop-color="#595EC7"/>
</linearGradient>
<linearGradient id="paint1_linear_3_289" x1="14.5378" y1="26.4489" x2="31.4993" y2="26.4489" gradientUnits="userSpaceOnUse">
<stop stop-color="white"/>
<stop offset="0.411458" stop-color="#E6E6E6"/>
<stop offset="0.661458" stop-color="#D9D9D9"/>
<stop offset="1" stop-color="#999999"/>
</linearGradient>
</defs>
</svg>
