<svg width="41" height="41" viewBox="0 0 41 41" fill="none" xmlns="http://www.w3.org/2000/svg">
<circle cx="20.5" cy="20.5" r="20.5" fill="url(#paint0_linear_319_602)"/>
<path d="M20.4996 26.3019C24.9856 26.3019 28.6222 22.6653 28.6222 18.1793C28.6222 13.6933 24.9856 10.0566 20.4996 10.0566C16.0136 10.0566 12.377 13.6933 12.377 18.1793C12.377 22.6653 16.0136 26.3019 20.4996 26.3019Z" fill="white"/>
<path d="M33.6495 36.3545C30.0399 39.2625 25.4704 40.9992 20.4986 40.9992C15.5267 40.9992 10.9573 39.2625 7.34766 36.3545C9.99076 32.423 14.891 29.7822 20.4986 29.7822C26.1062 29.7822 31.0064 32.423 33.6495 36.3545Z" fill="white"/>
<defs>
<linearGradient id="paint0_linear_319_602" x1="20.5" y1="0" x2="20.5" y2="41" gradientUnits="userSpaceOnUse">
<stop stop-color="#2E94DB"/>
<stop offset="1" stop-color="#5661C8"/>
</linearGradient>
</defs>
</svg>
