<svg width="28" height="28" viewBox="0 0 28 28" fill="none" xmlns="http://www.w3.org/2000/svg">
<g id="Layer_1" clip-path="url(#clip0_177_1599)">
<g id="Iconly Light Send">
<g id="Send-4">
<path id="Send-5" d="M19.2624 13.7603L11.2296 13.7886L9.42655 6.21551C9.3892 6.06504 9.38209 5.90863 9.4057 5.7554C9.42932 5.60217 9.48317 5.45519 9.56409 5.32295C9.64502 5.19071 9.75143 5.07583 9.87712 4.98506C10.0028 4.8943 10.1453 4.82944 10.2963 4.79422C10.5834 4.72537 10.8858 4.76572 11.1448 4.90738L25.4071 12.735C25.678 12.888 25.8775 13.1417 25.9622 13.441C26.047 13.7402 26.0101 14.0608 25.8597 14.3331C25.7496 14.5283 25.5882 14.6897 25.393 14.7998L11.0458 22.5709C10.9112 22.6453 10.7632 22.6925 10.6103 22.7096C10.4575 22.7268 10.3028 22.7137 10.155 22.671C10.0072 22.6283 9.86935 22.5569 9.7492 22.4608C9.62905 22.3648 9.52896 22.246 9.45477 22.1113C9.31817 21.853 9.28049 21.5538 9.34873 21.2698L11.1943 13.7674" stroke="#4E6ACB" stroke-width="1.5" stroke-linecap="round" stroke-linejoin="round"/>
</g>
</g>
</g>
<defs>
<clipPath id="clip0_177_1599">
<rect width="19.5" height="19.5" fill="white" transform="translate(13.7891) rotate(45)"/>
</clipPath>
</defs>
</svg>
