<svg width="18" height="19" viewBox="0 0 18 19" fill="none" xmlns="http://www.w3.org/2000/svg">
<path d="M16.8157 5.83535L16.2474 4.86104C16.1352 4.66402 15.985 4.49124 15.8056 4.35267C15.6261 4.21409 15.421 4.11247 15.202 4.05374C14.983 3.99501 14.7545 3.98034 14.5298 4.01052C14.3051 4.0407 14.0886 4.11517 13.8929 4.2296C13.501 4.45773 13.0351 4.52219 12.596 4.40905C12.1569 4.2959 11.7802 4.01423 11.5474 3.62514C11.3948 3.37843 11.3136 3.0943 11.3128 2.80424C11.3299 2.3439 11.1639 1.89555 10.8511 1.55738C10.5382 1.21921 10.1042 1.01878 9.6439 1H8.45309C7.9985 1 7.56253 1.18055 7.24109 1.50199C6.91965 1.82343 6.73907 2.25941 6.73907 2.71399C6.73432 3.16784 6.55067 3.60152 6.22805 3.92077C5.90543 4.24001 5.46989 4.41904 5.01602 4.41901C4.72436 4.41806 4.43809 4.34027 4.18606 4.19348C3.99032 4.07905 3.77385 4.00458 3.54914 3.9744C3.32443 3.94422 3.09594 3.95894 2.87695 4.01767C2.65796 4.07641 2.4528 4.17802 2.27335 4.3166C2.09389 4.45518 1.94374 4.62796 1.83154 4.82498L1.2271 5.81729C1.00128 6.2124 0.940939 6.68081 1.05925 7.12025C1.17756 7.5597 1.46493 7.93451 1.8586 8.16283C2.12074 8.31519 2.33829 8.53368 2.48952 8.79648C2.64074 9.05927 2.7203 9.35713 2.7203 9.66033C2.7203 9.96352 2.64074 10.2614 2.48952 10.5242C2.33829 10.787 2.12074 11.0055 1.8586 11.1579C1.46555 11.3845 1.17836 11.7576 1.05999 12.1956C0.941623 12.6336 1.00171 13.1006 1.2271 13.4943L1.80447 14.4777C2.02517 14.8766 2.39499 15.1718 2.83293 15.2986C3.27087 15.4254 3.74123 15.3736 4.14096 15.1543C4.33509 15.0411 4.54967 14.9674 4.77237 14.9374C4.99507 14.9075 5.22148 14.9218 5.43861 14.9797C5.65575 15.0375 5.85931 15.1377 6.03759 15.2745C6.21587 15.4113 6.36536 15.582 6.47745 15.7767C6.62423 16.0288 6.70202 16.315 6.70298 16.6067C6.70536 17.0645 6.88891 17.5027 7.21348 17.8256C7.53804 18.1485 7.97722 18.3297 8.43503 18.3297H9.56268C10.0181 18.3297 10.455 18.1494 10.7779 17.8282C11.1008 17.5071 11.2833 17.0711 11.2857 16.6157C11.2833 16.3903 11.3257 16.1666 11.4103 15.9577C11.4949 15.7487 11.6201 15.5586 11.7787 15.3984C11.9373 15.2382 12.126 15.111 12.3341 15.0242C12.5421 14.9373 12.7653 14.8926 12.9908 14.8926C13.2822 14.8948 13.5682 14.9725 13.8207 15.1181C14.0167 15.2314 14.2332 15.3049 14.4576 15.3344C14.6821 15.364 14.9102 15.349 15.1288 15.2903C15.3475 15.2317 15.5524 15.1306 15.732 14.9927C15.9115 14.8548 16.0622 14.6828 16.1752 14.4867L16.7706 13.4943C16.9972 13.1003 17.0589 12.6327 16.9423 12.1934C16.8258 11.7541 16.5403 11.3787 16.1482 11.1488C15.9519 11.0383 15.7795 10.8899 15.6409 10.7123C15.5023 10.5347 15.4003 10.3314 15.3408 10.1141C15.2812 9.89689 15.2653 9.66997 15.2939 9.44653C15.3226 9.22308 15.3952 9.00754 15.5077 8.81233C15.6554 8.54725 15.8741 8.32856 16.1391 8.18084C16.531 7.95085 16.8168 7.57613 16.9349 7.13738C17.0531 6.69862 16.9941 6.231 16.7706 5.83535H16.8157Z" stroke="#7B7F82" stroke-linecap="round" stroke-linejoin="round"/>
<path d="M9.0304 12.0601C10.3457 12.0601 11.412 10.9938 11.412 9.67848C11.412 8.36317 10.3457 7.29688 9.0304 7.29688C7.71508 7.29688 6.6488 8.36317 6.6488 9.67848C6.6488 10.9938 7.71508 12.0601 9.0304 12.0601Z" stroke="#7B7F82" stroke-linecap="round" stroke-linejoin="round"/>
</svg>
