<svg width="47" height="47" viewBox="0 0 47 47" fill="none" xmlns="http://www.w3.org/2000/svg">
<rect width="47" height="47" fill="#1E1E1E"/>
<g id="New Application" clip-path="url(#clip0_0_1)">
<rect width="1366" height="1171" transform="translate(-138 -423)" fill="white"/>
<rect id="Rectangle 700" x="-78" y="-348" width="1306" height="1096" fill="white"/>
<rect id="Rectangle 35851" x="-33" y="-36" width="271" height="271" rx="15" fill="#F9F9F9"/>
<circle id="Ellipse 2846" cx="23.5" cy="23.5" r="23.5" fill="white"/>
<g id="Iconly Light Buy">
<g id="Buy-4">
<path id="Stroke 1-27" d="M18.6243 32.7442C18.7528 32.7295 18.8829 32.7422 19.0061 32.7813C19.1293 32.8203 19.2429 32.885 19.3394 32.9711C19.4359 33.0571 19.5131 33.1627 19.5659 33.2806C19.6188 33.3986 19.6462 33.5265 19.6462 33.6558C19.6462 33.785 19.6188 33.9129 19.5659 34.0309C19.5131 34.1489 19.4359 34.2543 19.3394 34.3404C19.2429 34.4264 19.1293 34.4912 19.0061 34.5303C18.8829 34.5694 18.7528 34.582 18.6243 34.5673C18.3841 34.5673 18.1538 34.4719 17.984 34.3021C17.8142 34.1322 17.7188 33.9019 17.7188 33.6617C17.7187 33.4204 17.8138 33.1889 17.9832 33.0172C18.1527 32.8454 18.3831 32.7474 18.6243 32.7442Z" stroke="#4E6ACB" stroke-width="1.5" stroke-linecap="round" stroke-linejoin="round"/>
<path id="Stroke 3-25" d="M31.9681 32.7432C32.2114 32.7432 32.4447 32.8398 32.6168 33.0119C32.7888 33.1839 32.8855 33.4173 32.8855 33.6606C32.8598 33.8844 32.7528 34.091 32.5848 34.2409C32.4167 34.3909 32.1993 34.4737 31.974 34.4737C31.7488 34.4737 31.5314 34.3909 31.3633 34.2409C31.1952 34.091 31.0881 33.8844 31.0625 33.6606C31.0625 33.4194 31.1575 33.1878 31.327 33.0161C31.4965 32.8444 31.7268 32.7463 31.9681 32.7432Z" stroke="#4E6ACB" stroke-width="1.5" stroke-linecap="round" stroke-linejoin="round"/>
<path id="Stroke 5-18" d="M13 13L15.4783 13.4289L16.6698 27.1075C16.7174 27.6438 16.9639 28.1428 17.3607 28.5066C17.7576 28.8704 18.2761 29.0726 18.8145 29.0734H31.7305C32.2485 29.0731 32.7491 28.8863 33.1407 28.5472C33.5324 28.2081 33.7888 27.7393 33.8632 27.2266L34.9833 19.4103C35.0136 19.2037 35.0027 18.9931 34.9514 18.7907C34.9001 18.5883 34.8093 18.398 34.6841 18.2308C34.559 18.0636 34.4021 17.9228 34.2224 17.8164C34.0426 17.7101 33.8436 17.6403 33.6369 17.6111H33.4105H15.8715" stroke="#4E6ACB" stroke-width="1.5" stroke-linecap="round" stroke-linejoin="round"/>
<path id="Stroke 7-13" d="M26.5469 21.9961H29.8592" stroke="#4E6ACB" stroke-width="1.5" stroke-linecap="round" stroke-linejoin="round"/>
</g>
</g>
</g>
<defs>
<clipPath id="clip0_0_1">
<rect width="1366" height="1171" fill="white" transform="translate(-138 -423)"/>
</clipPath>
</defs>
</svg>
