<svg width="80" height="80" viewBox="0 0 80 80" fill="none" xmlns="http://www.w3.org/2000/svg">
<path d="M79.8468 40.266C79.8468 18.4057 62.1255 0.684407 40.2652 0.684408C18.4049 0.684409 0.683591 18.4057 0.683592 40.266C0.683593 62.1264 18.4049 79.8477 40.2652 79.8477C62.1255 79.8477 79.8468 62.1264 79.8468 40.266Z" fill="#B9C4E1"/>
<path d="M40.2498 56.521C48.7529 56.521 55.646 46.9735 55.646 35.196C55.646 23.4186 48.7529 13.8711 40.2498 13.8711C31.7467 13.8711 24.8535 23.4186 24.8535 35.196C24.8535 46.9735 31.7467 56.521 40.2498 56.521Z" fill="white"/>
<path d="M40.0064 55.1602C27.1222 55.1602 15.5949 58.2467 7.93652 63.1058C11.5772 68.2611 16.3983 72.4706 21.9975 75.3829C27.5966 78.2952 33.8112 79.8256 40.1224 79.8466C46.4336 79.8675 52.6582 78.3783 58.2765 75.5032C63.8948 72.6282 68.7438 68.4508 72.4186 63.3197C64.7602 58.3384 53.0862 55.1602 40.0064 55.1602Z" fill="white"/>
<path d="M42.5973 40.2578H37.9032C34.6559 40.2578 32.0234 42.8903 32.0234 46.1376V59.5169C32.0234 62.7642 34.6559 65.3967 37.9032 65.3967H42.5973C45.8446 65.3967 48.4771 62.7642 48.4771 59.5169V46.1376C48.4771 42.8903 45.8446 40.2578 42.5973 40.2578Z" fill="white"/>
<path d="M27.2859 36.4038C27.7443 39.8266 26.9864 42.7909 25.5868 43.0293C24.1871 43.2676 22.6835 40.6823 22.2251 37.2656C21.7667 33.849 22.5185 30.8846 23.9182 30.6463C25.3178 30.4079 26.8214 32.9627 27.2859 36.4038Z" fill="white"/>
<path d="M53.2207 36.4038C52.7561 39.8266 53.514 42.7909 54.9137 43.0293C56.3133 43.2676 57.8169 40.6823 58.2814 37.2656C58.7459 33.849 57.9819 30.8846 56.5823 30.6463C55.1826 30.4079 53.6791 32.9627 53.2207 36.4038Z" fill="white"/>
<path d="M25.4112 34.3581C24.8896 30.9394 24.3721 27.5248 23.8587 24.1143C23.6692 22.8919 23.4859 21.5656 23.9382 20.3982C24.3905 19.2308 25.7168 18.2956 26.8964 18.7357C26.4258 16.3642 29.054 14.6101 31.3399 13.8461C35.1655 12.4443 39.2621 11.9404 43.3134 12.3731C47.3789 12.8287 51.1513 14.7106 53.9606 17.6844C54.8455 18.6152 55.5299 19.7178 55.9714 20.9238C56.7599 23.2647 56.2587 25.8135 55.7514 28.2583L54.529 34.0219C54.4721 34.4653 54.3016 34.8864 54.0339 35.2443C53.5572 35.7761 52.7504 35.8128 52.0353 35.8128L29.1273 35.8678C27.691 35.8678 25.8207 35.5133 25.6312 34.0892" fill="white"/>
</svg>
