<svg width="22" height="22" viewBox="0 0 22 22" fill="none" xmlns="http://www.w3.org/2000/svg">
<g id="Group 1000004292">
<path id="Vector" d="M11.0195 1V8L13.0195 6" stroke="#4E6ACB" stroke-width="1.5" stroke-linecap="round" stroke-linejoin="round"/>
<path id="Vector_2" d="M11.0195 8L9.01953 6" stroke="#4E6ACB" stroke-width="1.5" stroke-linecap="round" stroke-linejoin="round"/>
<path id="Vector_3" d="M1 12H5.41998C5.6074 11.9996 5.79113 12.0519 5.95026 12.151C6.10939 12.25 6.23754 12.3917 6.32001 12.56L7.48999 14.89C7.65327 15.2187 7.90386 15.4961 8.21429 15.6919C8.52473 15.8877 8.88303 15.9943 9.25 16H12.78C13.1521 15.9998 13.5167 15.8958 13.8329 15.6997C14.1492 15.5037 14.4044 15.2232 14.57 14.89L15.74 12.55C15.8239 12.3836 15.9525 12.2439 16.1116 12.1467C16.2706 12.0495 16.4536 11.9987 16.64 12H21" stroke="#4E6ACB" stroke-width="1.5" stroke-linecap="round" stroke-linejoin="round"/>
<path id="Vector_4" d="M6.01953 3.12988C2.47953 3.64988 1.01953 5.72988 1.01953 9.99988V13.9999C1.01953 18.9999 3.01953 20.9999 8.01953 20.9999H14.0195C19.0195 20.9999 21.0195 18.9999 21.0195 13.9999V9.99988C21.0195 5.72988 19.5595 3.64988 16.0195 3.12988" stroke="#4E6ACB" stroke-width="1.5" stroke-linecap="round" stroke-linejoin="round"/>
</g>
</svg>
