<svg width="35" height="35" viewBox="0 0 35 35" fill="none" xmlns="http://www.w3.org/2000/svg">
<circle cx="17.5" cy="17.5" r="17.5" fill="#ECB632"/>
<path d="M19.576 12.8597C19.1761 15.2674 18.7732 17.6693 18.3672 20.0655C18.2293 20.8836 17.7014 21.3688 16.968 21.3672C16.2346 21.3656 15.7082 20.8804 15.5703 20.0623C15.1633 17.6546 14.7604 15.2522 14.3615 12.855C14.069 11.09 15.2823 9.54964 16.9575 9.54493C18.6327 9.54022 19.8715 11.0806 19.576 12.8597Z" fill="white"/>
<path d="M18.2942 24.0946C18.2986 24.2716 18.2674 24.4478 18.2026 24.6126C18.1378 24.7775 18.0406 24.9276 17.9168 25.0543C17.793 25.1809 17.6451 25.2815 17.4817 25.35C17.3184 25.4186 17.143 25.4537 16.9659 25.4533C16.7888 25.4529 16.6135 25.417 16.4505 25.3478C16.2875 25.2785 16.14 25.1773 16.0167 25.0501C15.8935 24.9229 15.797 24.7723 15.7329 24.6072C15.6688 24.442 15.6384 24.2657 15.6436 24.0887C15.6537 23.7435 15.7982 23.4158 16.0462 23.1754C16.2943 22.9351 16.6264 22.801 16.9718 22.8018C17.3172 22.8025 17.6486 22.9381 17.8956 23.1795C18.1426 23.421 18.2856 23.7493 18.2942 24.0946Z" fill="white"/>
</svg>
